<svg width="84" height="61" viewBox="0 0 84 61" fill="none" xmlns="http://www.w3.org/2000/svg">
<path fill-rule="evenodd" clip-rule="evenodd" d="M41.6205 0.0177266C40.8468 0.0900516 39.8276 0.304387 39.0594 0.556363C37.4301 1.09082 35.7397 2.20199 34.4241 3.60338C33.9224 4.13777 33.7562 4.34023 33.4603 4.77761C32.6796 5.93129 32.2654 6.87814 31.9348 8.26504C31.698 9.25836 31.6518 10.2438 31.8063 11.0085C31.8863 11.4042 32.1435 11.8617 32.459 12.169C32.661 12.3659 33.1575 12.6192 33.4946 12.6974C34.2879 12.8815 35.3142 12.4018 35.7845 11.627C35.9951 11.2801 36.0659 11.0079 36.1978 10.0371C36.2661 9.53419 36.3573 9.00212 36.4049 8.82847C36.6837 7.81161 37.1915 6.9647 38.0349 6.11015C38.8257 5.30895 39.7345 4.77352 40.8775 4.4353C41.795 4.16382 43.0194 4.12162 44.0235 4.32694C44.9473 4.51583 45.9846 5.0173 46.79 5.66448C47.1126 5.92368 47.743 6.57301 47.9873 6.89762C48.8486 8.04257 49.2855 9.5919 49.1681 11.0853C49.0428 12.678 48.5026 13.8804 47.2944 15.2556C46.8844 15.7222 44.3841 18.2176 43.7057 18.8372C43.3935 19.1223 42.6188 19.8646 41.9841 20.4867C40.7306 21.7153 39.8174 22.6018 39.2966 23.0958C36.7537 25.5076 36.3014 25.9986 35.3907 27.336C34.789 28.2196 34.2293 28.8964 33.8133 29.2436C33.4715 29.5289 33.4126 29.5603 31.0284 30.7302C29.1111 31.6709 25.6677 33.3805 25.6217 33.4144C25.5245 33.4861 23.4976 34.4975 16.5948 37.9185C14.0298 39.1896 11.5683 40.4225 11.1249 40.6581C9.70996 41.4099 9.30382 41.571 8.0421 41.881C6.66482 42.2194 5.95942 42.4603 5.09536 42.8874C4.35199 43.2549 3.55199 43.7546 3.02953 44.1777C2.69135 44.4516 2.02708 45.0964 1.73471 45.4345C0.650939 46.6877 0.0652142 48.1626 0.00438104 49.7915C-0.0493697 51.2299 0.391449 52.4663 1.32842 53.5052C1.68194 53.8971 2.17553 54.2145 2.6038 54.3253C2.85592 54.3906 3.36187 54.3896 3.59445 54.3234C4.31082 54.1196 4.90018 53.4493 4.99732 52.728C5.06982 52.1895 4.95087 51.661 4.61761 51.0411C4.08713 50.0544 4.07457 50.0005 4.2332 49.3917C4.37352 48.8531 4.78598 48.1973 5.29519 47.7029C5.90238 47.1134 6.78848 46.5731 7.89982 46.1148C8.84324 45.7258 9.30249 45.5814 10.2712 45.369C10.9202 45.2267 11.283 45.1126 11.7888 44.8918C12.2482 44.6913 13.1744 44.2344 13.9863 43.8079C14.9035 43.326 17.054 42.2543 17.8753 41.8697C18.2927 41.6743 18.7622 41.4469 18.9187 41.3643C19.3285 41.148 22.3209 39.6669 22.6022 39.541C22.8885 39.413 23.9223 38.8911 24.4677 38.5993C24.6851 38.483 26.1008 37.7717 27.6137 37.0188C29.1266 36.2658 30.8055 35.4248 31.3446 35.1499C31.8837 34.875 32.8979 34.358 33.5984 34.0011C34.2989 33.6441 35.0009 33.2799 35.1584 33.1917C35.3158 33.1035 35.4562 33.0435 35.4703 33.0584C35.4844 33.0733 35.5833 33.2548 35.6899 33.4615C36.0588 34.1767 36.5568 34.8384 37.2364 35.5161C38.176 36.4532 38.9769 36.9493 40.1629 37.329C40.6817 37.495 41.3669 37.6374 41.9042 37.6907C42.3689 37.7369 43.2733 37.7122 43.691 37.6419C44.5016 37.5055 45.4883 37.1907 46.1619 36.8536C47.1125 36.3779 48.1748 35.4391 48.8969 34.4365C49.059 34.2115 49.3587 33.6921 49.5449 33.3133C49.6023 33.1967 49.659 33.1012 49.6708 33.1012C49.6827 33.1012 49.7828 33.1555 49.8933 33.2218C50.0038 33.2881 51.1826 33.8835 52.5129 34.545C53.8432 35.2065 54.9459 35.7581 54.9633 35.7708C54.9956 35.7944 56.6535 36.6284 60.3068 38.4588C61.4371 39.0251 62.3762 39.4988 62.3935 39.5114C62.432 39.5392 66.7941 41.7089 67.4366 42.0198C67.6888 42.1418 68.2343 42.4188 68.6489 42.6354C69.0635 42.852 69.6326 43.1443 69.9136 43.2851C70.1946 43.4259 70.6949 43.6823 71.0253 43.8549C72.9969 44.885 73.4725 45.1008 74.2977 45.3389C75.0982 45.5699 75.2369 45.6127 75.5467 45.7252C75.9108 45.8574 77.0288 46.4039 77.4361 46.6488C77.9333 46.9478 78.2902 47.2176 78.6646 47.5778C79.3638 48.2504 79.7797 48.9751 79.8968 49.7249C79.9239 49.8981 79.9208 49.975 79.8805 50.1311C79.8181 50.3732 79.6973 50.5516 79.2753 51.0254C78.7455 51.6201 78.6134 51.9478 78.6361 52.612C78.6465 52.9186 78.662 53.0066 78.738 53.1933C79.0464 53.95 79.7813 54.4338 80.6214 54.433C80.9027 54.4327 81.0492 54.4022 81.3837 54.274C82.3303 53.9112 83.3135 52.7867 83.6862 51.6404C84.1198 50.3069 84.1045 49.0493 83.6376 47.6353C83.3929 46.8942 82.8651 45.9928 82.2489 45.2635C81.72 44.6374 80.7809 43.8419 79.9396 43.307C79.033 42.7307 77.889 42.2287 76.8114 41.9345C75.2624 41.5116 75.3139 41.5325 73.8551 40.7295C73.2308 40.3858 71.972 39.7358 70.9779 39.2437C70.4996 39.007 69.7811 38.6464 69.3811 38.4424C68.9812 38.2384 67.6082 37.549 66.33 36.9105C65.0518 36.272 63.4583 35.4734 62.7888 35.136C60.2406 33.8517 57.998 32.728 55.2795 31.3734C51.3219 29.4014 51.4355 29.465 50.893 28.9165C50.5621 28.5821 50.3081 28.2392 49.9666 27.6659C49.6565 27.1454 49.1311 26.3602 48.924 26.1079C48.608 25.7227 47.8116 24.947 47.3886 24.612C47.0959 24.3804 46.5388 24.0435 46.0154 23.7816C45.7198 23.6338 45.4583 23.4941 45.4343 23.4713C45.3977 23.4365 45.5649 23.2593 46.4768 22.3667C49.8878 19.0281 50.4534 18.4314 51.2816 17.2978C52.2754 15.9376 52.9581 14.4141 53.2679 12.8653C53.4448 11.981 53.4738 11.677 53.4753 10.7C53.4766 9.76524 53.4551 9.48715 53.3163 8.64611C53.156 7.67491 52.9709 7.07636 52.5377 6.12859C51.7696 4.44822 50.3405 2.83667 48.5765 1.66163C47.7999 1.14436 46.3218 0.487933 45.5727 0.327731C45.4162 0.294271 45.2455 0.253427 45.1933 0.236964C45.1412 0.2205 44.8139 0.163445 44.4661 0.110159C43.8844 0.0210256 43.7566 0.0123854 42.8694 0.00220583C42.339 -0.00388933 41.777 0.00308564 41.6205 0.0177266ZM43.1122 27.1968C43.903 27.3042 44.8761 27.8532 45.3559 28.4626C45.8002 29.0268 46.0275 29.6706 46.0301 30.3716C46.0321 30.9158 45.9262 31.3386 45.6515 31.884C45.1855 32.8091 44.3139 33.4258 43.2014 33.6175C42.617 33.7182 42.1339 33.671 41.465 33.4477C40.3036 33.06 39.5234 32.2312 39.2337 31.0776C39.1723 30.833 39.1653 30.7396 39.1783 30.3392C39.1915 29.9306 39.2042 29.8468 39.2958 29.5669C39.4816 28.9985 39.7544 28.5343 40.0921 28.2114C40.5227 27.7998 40.968 27.533 41.5481 27.3392C42.0473 27.1723 42.5772 27.1241 43.1122 27.1968ZM55.5365 44.0697C55.1377 44.1628 54.5945 44.6039 54.4153 44.9801C54.2003 45.4317 54.2094 45.2862 54.1975 48.4805C54.1832 52.3109 54.2352 58.4812 54.2835 58.6915C54.3033 58.7779 54.3554 58.9586 54.3993 59.0931C54.5747 59.6305 55.1144 60.2506 55.6215 60.4972C56.1938 60.7756 56.3812 60.7892 59.3898 60.7714C60.9902 60.7619 61.8852 60.745 62.0017 60.722C62.5331 60.6173 63.1139 60.1846 63.3289 59.7331C63.6156 59.1314 63.473 58.3554 62.9828 57.8488C62.6874 57.5435 62.3895 57.3849 61.8986 57.2716C61.7012 57.226 61.5074 57.2188 60.6071 57.2236C60.0246 57.2266 59.1962 57.2382 58.7664 57.2492L57.9849 57.2693L57.9759 51.3982L57.967 45.5272L57.8826 45.2976C57.8362 45.1714 57.7395 44.9785 57.6677 44.869C57.4247 44.4985 56.9011 44.1461 56.4778 44.0683C56.2613 44.0285 55.7094 44.0294 55.5365 44.0697ZM65.8066 44.2961C65.2706 44.4732 64.9035 44.7829 64.6789 45.2472L64.5436 45.5272L64.5338 50.4285C64.5272 53.7685 64.535 55.4562 64.5584 55.7267C64.6415 56.6883 64.9691 57.5593 65.5663 58.4065C66.1342 59.2123 67.1521 60.08 67.9835 60.4672C69.3643 61.1102 71.1942 61.1758 72.7801 60.6391C73.9878 60.2305 74.8573 59.6135 75.5916 58.6443C76.2537 57.7702 76.6143 56.8931 76.7346 55.8638C76.7875 55.4111 76.813 51.1763 76.7662 50.6106C76.6995 49.8052 76.582 49.5088 76.1633 49.09C75.9532 48.8798 75.8405 48.7947 75.6567 48.7075C75.3018 48.5392 75.0826 48.4857 74.7562 48.4878C74.0633 48.4923 73.5031 48.7877 73.188 49.3147C72.9666 49.685 72.9664 49.6865 72.94 52.7691C72.9172 55.4254 72.9151 55.4918 72.8488 55.7067C72.6926 56.2127 72.4327 56.591 72.0303 56.8984C71.5419 57.2713 70.6767 57.4332 70.1038 57.2588C69.4229 57.0516 68.8907 56.583 68.589 55.9252C68.3642 55.4349 68.3797 55.7568 68.3504 50.9783C68.3359 48.6023 68.3101 46.4462 68.2932 46.187C68.2484 45.5018 68.1364 45.1737 67.8414 44.8637C67.6336 44.6454 67.3496 44.4651 67.0229 44.3441C66.7941 44.2594 66.7058 44.2439 66.3932 44.234C66.0767 44.2239 66.0008 44.2319 65.8066 44.2961ZM9.73367 48.2429C9.44402 48.2853 8.65824 48.4886 8.401 48.5876C7.82403 48.8098 7.39242 49.0858 6.99871 49.4842C6.43183 50.0579 6.07012 50.8054 5.9721 51.6058C5.80244 52.9915 6.26567 54.1585 7.26174 54.8548C7.79732 55.2291 8.46003 55.5039 9.66879 55.8528C10.6407 56.1334 11.2018 56.3929 11.3082 56.6113C11.3648 56.7276 11.3282 56.8898 11.2052 57.0672C11.0001 57.3629 10.3802 57.5848 9.76529 57.5826C9.43542 57.5814 9.14921 57.5159 8.22723 57.2305C7.51601 57.0103 7.12085 56.933 6.87571 56.9659C6.46566 57.0209 6.14666 57.1372 5.89558 57.3234C5.66566 57.4938 5.5751 57.5984 5.48174 57.8012C5.26208 58.2785 5.25393 58.8926 5.46182 59.2975C5.54219 59.4541 5.84487 59.7887 6.06708 59.9667C6.98426 60.7012 9.29573 61.1699 10.8765 60.9417C11.7922 60.8096 12.4419 60.5667 13.1656 60.0858C13.7792 59.6781 14.2403 59.1678 14.5818 58.5187C15.4947 56.7831 14.9157 54.8114 13.1786 53.7402C12.7217 53.4585 12.2861 53.2804 11.1091 52.8939C9.95114 52.5138 9.62048 52.3658 9.45151 52.1524C9.26676 51.919 9.52546 51.5673 9.98661 51.4248C10.1123 51.3859 10.2701 51.3712 10.5557 51.3717C10.9963 51.3724 11.2186 51.411 11.9627 51.6155C12.7233 51.8246 13.1541 51.7959 13.6859 51.5007C14.1035 51.2688 14.3216 50.928 14.344 50.4725C14.3734 49.8706 14.1661 49.4446 13.6543 49.0556C13.2453 48.7447 12.7717 48.5681 11.8047 48.366C11.2381 48.2476 11.167 48.2399 10.5557 48.229C10.1992 48.2226 9.82931 48.2289 9.73367 48.2429ZM46.8367 48.4016C46.5695 48.4406 46.3117 48.5267 46.0519 48.6636C45.7511 48.8221 45.3875 49.1822 45.1344 49.5723C44.9728 49.8212 43.5264 52.6351 42.3606 54.9684C42.0541 55.5818 41.6797 56.31 41.5286 56.5865C40.9369 57.6692 40.751 58.2161 40.751 58.8736C40.751 59.4351 40.9102 59.8269 41.3091 60.2471C42.064 61.0423 43.3603 60.884 44.06 59.9113C44.2208 59.6878 44.4669 59.1817 44.5922 58.8172C44.7452 58.3719 44.7131 58.3988 45.1061 58.3855C45.2932 58.3792 46.3307 58.3709 47.4116 58.3671L49.377 58.3602L49.4802 58.647C49.6123 59.0139 49.9408 59.6851 50.1082 59.93C50.388 60.3395 50.7547 60.6076 51.1448 60.6881C51.2505 60.7099 51.4883 60.7199 51.7253 60.7126C52.1224 60.7003 52.1296 60.6987 52.3941 60.5685C52.5679 60.4829 52.738 60.3662 52.8797 60.2353C53.5389 59.6265 53.6422 58.8294 53.2077 57.7018C53.1511 57.5549 52.881 56.9965 52.6073 56.4608C52.3337 55.9251 51.5617 54.3982 50.8918 53.0676C50.2219 51.737 49.5708 50.4575 49.445 50.2242C48.9211 49.2529 48.6104 48.8894 48.0771 48.6235C47.6209 48.3961 47.2854 48.3361 46.8367 48.4016ZM24.5276 48.4334C23.9614 48.5229 23.462 48.8672 23.1888 49.3568C23.0115 49.6744 22.9379 49.9677 22.9601 50.2678C22.9948 50.7372 23.0822 50.9827 23.7329 52.4392C23.9491 52.9231 24.1814 53.4638 24.2493 53.641C24.3936 54.0178 24.9204 55.2772 25.1792 55.8638C25.2782 56.0885 25.6067 56.842 25.909 57.5383C26.6816 59.3178 26.9419 59.8044 27.3314 60.1977C27.774 60.6446 28.2761 60.8192 28.912 60.7474C29.5863 60.6713 30.1112 60.3104 30.4991 59.6561C30.768 59.2024 30.8995 58.8899 31.3942 57.529C31.9411 56.0246 32.2577 55.204 32.2914 55.204C32.3058 55.204 32.3628 55.3454 32.4181 55.5182C32.4735 55.691 32.6512 56.1576 32.8131 56.555C32.975 56.9525 33.1544 57.4049 33.2117 57.5604C33.8525 59.2988 34.1104 59.8138 34.5662 60.265C34.8346 60.5307 35.0843 60.661 35.4708 60.737C35.6995 60.782 35.7806 60.7844 36.0157 60.7534C36.6897 60.6645 37.1573 60.3849 37.573 59.8225C37.9237 59.3482 38.2367 58.7152 38.9855 56.9658C39.2302 56.3943 39.5799 55.5873 39.7628 55.1726C39.9457 54.7579 40.3049 53.9379 40.5611 53.3504C40.8174 52.7628 41.1126 52.0983 41.2171 51.8737C41.4199 51.4381 41.6147 50.9271 41.6664 50.6955C41.7983 50.1046 41.5543 49.4376 41.0268 48.9473C40.5693 48.5221 39.9524 48.3345 39.3856 48.4482C39.0038 48.5248 38.659 48.6959 38.3968 48.9388C37.9842 49.321 37.7898 49.6983 37.305 51.0573C36.8772 52.2566 36.6685 52.8243 36.4676 53.3347C36.369 53.5852 36.255 53.875 36.2142 53.9787C36.0833 54.312 35.7838 55.1648 35.7652 55.2572C35.7234 55.4646 35.6885 55.4021 35.5334 54.8427C35.4783 54.644 35.3143 54.128 35.1689 53.696C34.7452 52.4369 34.4448 51.46 34.1397 50.3499C33.9314 49.5919 33.7704 49.2592 33.471 48.9675C33.1533 48.6581 32.8128 48.5274 32.326 48.528C31.8643 48.5286 31.4708 48.6698 31.1504 48.9499C30.8122 49.2457 30.6049 49.6866 30.3503 50.6519C30.1425 51.4396 30.0166 51.8544 29.7791 52.5335C29.6704 52.8445 29.4141 53.5933 29.2097 54.1975C29.0052 54.8017 28.8229 55.301 28.8046 55.307C28.7728 55.3176 28.7348 55.2072 28.6883 54.9684C28.6346 54.6937 27.9705 52.7864 27.5669 51.748C27.4594 51.4715 27.2674 50.9555 27.1402 50.6013C27.013 50.247 26.8657 49.8626 26.8129 49.7469C26.5179 49.1011 26.0631 48.6645 25.5058 48.4922C25.2833 48.4234 24.7819 48.3932 24.5276 48.4334ZM18.4031 48.6834C18.0887 48.7681 17.8839 48.8851 17.6562 49.1098C17.3042 49.4573 17.0987 49.918 17.0351 50.5023C17.0132 50.7033 17.0065 52.1552 17.0151 54.8113C17.0289 59.0755 17.0246 58.9517 17.1776 59.4743C17.2767 59.8125 17.6056 60.2508 17.9123 60.453C18.7786 61.0245 20.0441 60.7115 20.6318 59.7804C20.8413 59.4485 20.8894 59.2416 20.9322 58.4873C20.9748 57.7379 20.9406 50.8189 20.8922 50.3876C20.8167 49.7154 20.5184 49.2363 19.9808 48.9242C19.5066 48.6488 18.8841 48.5538 18.4031 48.6834ZM47.2582 53.2247C47.3912 53.5503 47.9908 54.8454 48.192 55.2417C48.2742 55.4035 48.2962 55.4745 48.2694 55.4909C48.2258 55.5177 45.9481 55.5246 45.9214 55.4981C45.9115 55.4883 45.9796 55.3333 46.0726 55.1536C46.3858 54.5488 46.8719 53.3892 47.0316 52.8656C47.0559 52.7859 47.1214 52.8897 47.2582 53.2247Z" fill="white"/>
</svg>
