<svg width="40" height="40" viewBox="0 0 40 40" fill="none" xmlns="http://www.w3.org/2000/svg">
<path d="M13.9688 19.9999L17.9854 24.0332L26.0354 15.9666" stroke="white" stroke-width="2.5" stroke-linecap="round" stroke-linejoin="round"/>
<path d="M7.06875 10.3334C7.06875 8.56672 8.51875 7.11672 10.2854 7.11672H13.1688C13.8354 7.11672 14.7688 6.76672 15.2688 6.35005L17.9021 4.10005C19.0688 3.11672 20.9521 3.11672 22.0854 4.10005L24.7188 6.35005C25.2188 6.76672 26.1688 7.11672 26.8354 7.11672H29.6687C31.4354 7.11672 32.8854 8.56672 32.8854 10.3334V13.1667C32.8854 13.8334 33.2354 14.7667 33.6521 15.2667L35.9021 17.9C36.8854 19.0667 36.8854 20.95 35.9021 22.0834L33.6521 24.7167C33.2354 25.2167 32.8854 26.1501 32.8854 26.8167V29.6501C32.8854 31.4167 31.4354 32.8667 29.6687 32.8667H26.8354C26.1688 32.8667 25.2354 33.2167 24.7354 33.6334L22.1021 35.8834C20.9354 36.8667 19.0521 36.8667 17.9188 35.8834L15.2854 33.6334C14.7854 33.2167 13.8354 32.8667 13.1854 32.8667H10.2854C8.51875 32.8667 7.06875 31.4167 7.06875 29.6501V26.8C7.06875 26.15 6.73542 25.2 6.31875 24.7167L4.06875 22.0667C3.10208 20.9167 3.10208 19.05 4.06875 17.9L5.00208 16.8" stroke="white" stroke-width="2.5" stroke-linecap="round" stroke-linejoin="round"/>
</svg>
