<svg width="41" height="40" viewBox="0 0 41 40" fill="none" xmlns="http://www.w3.org/2000/svg">
<path d="M35.5 9.96663C29.95 9.41663 24.3667 9.1333 18.8 9.1333C15.5 9.1333 12.2 9.29997 8.9 9.6333L5.5 9.96663" stroke="white" stroke-width="2.5" stroke-linecap="round" stroke-linejoin="round"/>
<path d="M14.666 8.28337L15.0327 6.10004C15.2993 4.51671 15.4993 3.33337 18.316 3.33337H22.6827C25.4994 3.33337 25.716 4.58337 25.966 6.11671L26.3327 8.28337" stroke="white" stroke-width="2.5" stroke-linecap="round" stroke-linejoin="round"/>
<path d="M31.9173 15.2334L30.834 32.0167C30.6507 34.6334 30.5007 36.6667 25.8507 36.6667H15.1507C10.5007 36.6667 10.3507 34.6334 10.1673 32.0167L9.08398 15.2334" stroke="white" stroke-width="2.5" stroke-linecap="round" stroke-linejoin="round"/>
<path d="M17.7168 27.5H23.2668" stroke="white" stroke-width="2.5" stroke-linecap="round" stroke-linejoin="round"/>
<path d="M16.334 20.8334H24.6673" stroke="white" stroke-width="2.5" stroke-linecap="round" stroke-linejoin="round"/>
</svg>
