<svg width="60" height="60" viewBox="0 0 60 60" fill="none" xmlns="http://www.w3.org/2000/svg">
<path opacity="0.4" d="M19.1254 52.2751C19.0504 52.2751 18.9504 52.3251 18.8754 52.3251C14.0254 49.9251 10.0754 45.9501 7.65039 41.1001C7.65039 41.0251 7.70039 40.9251 7.70039 40.8501C10.7504 41.7501 13.9004 42.4251 17.0254 42.9501C17.5754 46.1001 18.2254 49.2251 19.1254 52.2751Z" fill="#1570EF"/>
<path opacity="0.4" d="M52.3501 41.1251C49.8751 46.1001 45.7501 50.1251 40.7251 52.5501C41.6751 49.3751 42.4751 46.1751 43.0001 42.9501C46.1501 42.4251 49.2501 41.7501 52.3001 40.8501C52.2751 40.9501 52.3501 41.0501 52.3501 41.1251Z" fill="#1570EF"/>
<path opacity="0.4" d="M52.5501 19.275C49.4001 18.325 46.2251 17.55 43.0001 17C42.4751 13.775 41.7001 10.575 40.7251 7.44995C45.9001 9.92495 50.0751 14.1 52.5501 19.275Z" fill="#1570EF"/>
<path opacity="0.4" d="M19.1252 7.72515C18.2252 10.7751 17.5752 13.8751 17.0502 17.0251C13.8252 17.5251 10.6252 18.3251 7.4502 19.2751C9.8752 14.2501 13.9002 10.1251 18.8752 7.65015C18.9502 7.65015 19.0502 7.72515 19.1252 7.72515Z" fill="#1570EF"/>
<path d="M38.7244 16.475C32.9244 15.825 27.0744 15.825 21.2744 16.475C21.8994 13.05 22.6994 9.625 23.8244 6.325C23.8744 6.125 23.8494 5.975 23.8744 5.775C25.8494 5.3 27.8744 5 29.9994 5C32.0994 5 34.1494 5.3 36.0994 5.775C36.1244 5.975 36.1244 6.125 36.1744 6.325C37.2994 9.65 38.0994 13.05 38.7244 16.475Z" fill="#1570EF"/>
<path d="M16.475 38.7249C13.025 38.0999 9.625 37.2999 6.325 36.1749C6.125 36.1249 5.975 36.1499 5.775 36.1249C5.3 34.1499 5 32.1249 5 29.9999C5 27.8999 5.3 25.8499 5.775 23.8999C5.975 23.8749 6.125 23.8749 6.325 23.8249C9.65 22.7249 13.025 21.8999 16.475 21.2749C15.85 27.0749 15.85 32.9249 16.475 38.7249Z" fill="#1570EF"/>
<path d="M55.0004 29.9999C55.0004 32.1249 54.7004 34.1499 54.2254 36.1249C54.0254 36.1499 53.8754 36.1249 53.6754 36.1749C50.3504 37.2749 46.9504 38.0999 43.5254 38.7249C44.1754 32.9249 44.1754 27.0749 43.5254 21.2749C46.9504 21.8999 50.3754 22.6999 53.6754 23.8249C53.8754 23.8749 54.0254 23.8999 54.2254 23.8999C54.7004 25.8749 55.0004 27.8999 55.0004 29.9999Z" fill="#1570EF"/>
<path d="M38.7244 43.5249C38.0994 46.9749 37.2994 50.3749 36.1744 53.6749C36.1244 53.8749 36.1244 54.0249 36.0994 54.2249C34.1494 54.6999 32.0994 54.9999 29.9994 54.9999C27.8744 54.9999 25.8494 54.6999 23.8744 54.2249C23.8494 54.0249 23.8744 53.8749 23.8244 53.6749C22.7244 50.3499 21.8994 46.9749 21.2744 43.5249C24.1744 43.8499 27.0744 44.0749 29.9994 44.0749C32.9244 44.0749 35.8494 43.8499 38.7244 43.5249Z" fill="#1570EF"/>
<path d="M39.4083 39.4083C33.1556 40.1972 26.8444 40.1972 20.5917 39.4083C19.8028 33.1556 19.8028 26.8444 20.5917 20.5917C26.8444 19.8028 33.1556 19.8028 39.4083 20.5917C40.1972 26.8444 40.1972 33.1556 39.4083 39.4083Z" fill="#1570EF"/>
</svg>
