<svg width="60" height="60" viewBox="0 0 60 60" fill="none" xmlns="http://www.w3.org/2000/svg">
<path opacity="0.4" d="M14.3509 40.0001C14.6259 38.7751 14.1259 37.0251 13.2509 36.1501L7.17587 30.0751C5.27587 28.1751 4.52587 26.1501 5.07587 24.4001C5.65087 22.6501 7.42587 21.4501 10.0759 21.0001L17.8759 19.7001C19.0009 19.5001 20.3759 18.5001 20.9009 17.4751L25.2009 8.85012C26.4509 6.37512 28.1509 5.00012 30.0009 5.00012C31.8509 5.00012 33.5509 6.37512 34.8009 8.85012L39.1009 17.4751C39.4259 18.1251 40.1009 18.7501 40.8259 19.1751L13.9009 46.1001C13.5509 46.4501 12.9509 46.1251 13.0509 45.6251L14.3509 40.0001Z" fill="#FEC84B"/>
<path d="M46.75 36.1501C45.85 37.0501 45.35 38.7751 45.65 40.0001L47.375 47.5251C48.1 50.6501 47.65 53.0001 46.1 54.1251C45.475 54.5751 44.725 54.8001 43.85 54.8001C42.575 54.8001 41.075 54.3251 39.425 53.3501L32.1 49.0001C30.95 48.3251 29.05 48.3251 27.9 49.0001L20.575 53.3501C17.8 54.9751 15.425 55.2501 13.9 54.1251C13.325 53.7001 12.9 53.1251 12.625 52.3751L43.025 21.9751C44.175 20.8251 45.8 20.3001 47.375 20.5751L49.9 21.0001C52.55 21.4501 54.325 22.6501 54.9 24.4001C55.45 26.1501 54.7 28.1751 52.8 30.0751L46.75 36.1501Z" fill="#FEC84B"/>
</svg>
