<svg width="24" height="23" viewBox="0 0 24 23" fill="none" xmlns="http://www.w3.org/2000/svg">
<path d="M15.6459 7.31266L19.2917 3.66683M21.375 1.5835L19.2917 3.66683L21.375 1.5835ZM11.3646 11.5939C11.9025 12.1246 12.33 12.7565 12.6227 13.4531C12.9154 14.1497 13.0673 14.8973 13.0699 15.6529C13.0724 16.4085 12.9254 17.1571 12.6375 17.8557C12.3495 18.5542 11.9261 19.1889 11.3919 19.7232C10.8576 20.2575 10.2229 20.6808 9.52432 20.9688C8.82575 21.2568 8.07713 21.4038 7.32153 21.4012C6.56594 21.3987 5.81832 21.2467 5.1217 20.9541C4.42508 20.6614 3.79324 20.2339 3.26254 19.696C2.21893 18.6155 1.64146 17.1683 1.65451 15.6661C1.66757 14.1639 2.2701 12.727 3.33233 11.6647C4.39457 10.6025 5.83151 9.99998 7.33368 9.98693C8.83585 9.97387 10.2831 10.5513 11.3636 11.595L11.3646 11.5939ZM11.3646 11.5939L15.6459 7.31266L11.3646 11.5939ZM15.6459 7.31266L18.7709 10.4377L22.4167 6.79183L19.2917 3.66683L15.6459 7.31266Z" stroke="#667085" stroke-width="2.08333" stroke-linecap="round" stroke-linejoin="round"/>
</svg>
