<svg width="24" height="17" viewBox="0 0 24 17" fill="none" xmlns="http://www.w3.org/2000/svg">
<path d="M21.1707 9.37928L14.8883 7.42411C14.5616 7.3222 14.2612 7.15793 14.0061 6.94173C13.7511 6.72553 13.547 6.46215 13.4069 6.16832L11.0059 0.925883V0.916223C10.8349 0.558121 10.5246 0.27408 10.1377 0.121626C9.75088 -0.0308283 9.31645 -0.0403 8.92241 0.0951291L1.08931 2.75064C0.770412 2.85971 0.495001 3.05747 0.300219 3.31726C0.105437 3.57705 0.000654122 3.88637 0 4.2035V15.4544C0 15.8643 0.174384 16.2575 0.484789 16.5473C0.795194 16.8372 1.21619 17 1.65517 17H22.3448C22.7838 17 23.2048 16.8372 23.5152 16.5473C23.8256 16.2575 24 15.8643 24 15.4544V13.0452C24.0001 12.2342 23.7268 11.4437 23.2191 10.7858C22.7113 10.1278 21.9946 9.63577 21.1707 9.37928ZM1.65517 4.2035L9.48828 1.54412L10.2238 3.15056L7.99345 3.90887C7.81049 3.97088 7.65679 4.09112 7.55936 4.24846C7.46193 4.4058 7.42701 4.59017 7.46073 4.76918C7.49445 4.94818 7.59465 5.11035 7.74373 5.2272C7.89281 5.34406 8.08123 5.4081 8.27586 5.40809C8.37225 5.40797 8.46786 5.39194 8.55828 5.36075L10.8755 4.57444L11.3659 5.64379L9.64862 6.22339C9.46267 6.28342 9.30571 6.40335 9.20589 6.56167C9.10607 6.71999 9.06991 6.90635 9.10391 7.0873C9.13791 7.26826 9.23984 7.43199 9.39142 7.54912C9.543 7.66626 9.73431 7.72913 9.93103 7.72647C10.0274 7.72635 10.123 7.71032 10.2134 7.67914L12.0341 7.0609C12.2427 7.42004 12.5108 7.74608 12.8286 8.02689L11.3038 8.54467C11.1201 8.6062 10.9656 8.72637 10.8676 8.88395C10.7696 9.04153 10.7344 9.22638 10.7682 9.40586C10.802 9.58534 10.9026 9.74789 11.0523 9.86481C11.2019 9.98173 11.3911 10.0455 11.5862 10.0449C11.6825 10.0446 11.778 10.0289 11.8686 9.99849L14.7652 9.0151L20.6483 10.8457C21.0228 10.9626 21.3621 11.1613 21.6379 11.4252C21.9137 11.6892 22.1181 12.0107 22.2341 12.3632H1.65517V4.2035ZM22.3448 15.4544H1.65517V13.9088H22.3448V15.4544Z" fill="white"/>
</svg>
