<svg width="50" height="50" viewBox="0 0 50 50" fill="none" xmlns="http://www.w3.org/2000/svg">
<path d="M12.0696 32.711C12.2945 31.7093 11.8856 30.2782 11.1701 29.5626L6.20206 24.5946C4.64828 23.0408 4.03494 21.3848 4.48472 19.9537C4.95495 18.5226 6.40651 17.5412 8.57362 17.1732L14.9523 16.1101C15.8723 15.9466 16.9968 15.1288 17.4261 14.2906L20.9425 7.2372C21.9648 5.21319 23.355 4.08875 24.8679 4.08875C26.3808 4.08875 27.771 5.21319 28.7932 7.2372L32.3097 14.2906C32.5755 14.8221 33.1275 15.3332 33.7204 15.6808L11.7016 37.6995C11.4154 37.9857 10.9247 37.7199 11.0065 37.3111L12.0696 32.711Z" fill="#FDB022"/>
<path d="M38.5659 29.5626C37.8299 30.2986 37.421 31.7093 37.6664 32.7111L39.077 38.8649C39.6699 41.4204 39.3019 43.3422 38.0344 44.2622C37.5233 44.6302 36.9099 44.8142 36.1944 44.8142C35.1517 44.8142 33.925 44.4258 32.5757 43.6284L26.5854 40.0711C25.645 39.5191 24.0912 39.5191 23.1508 40.0711L17.1605 43.6284C14.8912 44.9573 12.949 45.1822 11.7018 44.2622C11.2316 43.9147 10.8841 43.4444 10.6592 42.8311L35.5197 17.9706C36.4601 17.0301 37.789 16.6008 39.077 16.8257L41.1419 17.1733C43.309 17.5413 44.7606 18.5226 45.2308 19.9537C45.6806 21.3848 45.0673 23.0408 43.5135 24.5946L38.5659 29.5626Z" fill="#FDB022"/>
</svg>
