<svg width="41" height="40" viewBox="0 0 41 40" fill="none" xmlns="http://www.w3.org/2000/svg">
<path d="M23.2846 12.5166C22.4513 12.2666 21.5346 12.1 20.5013 12.1C15.9013 12.1 12.168 15.8333 12.168 20.4333C12.168 25.0333 15.9013 28.7666 20.5013 28.7666C25.1013 28.7666 28.8346 25.0333 28.8346 20.4333C28.8346 18.7166 28.318 17.1333 27.4346 15.8" stroke="white" stroke-width="2.5" stroke-linecap="round" stroke-linejoin="round"/>
<path d="M24.4698 12.75L21.7031 9.56665" stroke="white" stroke-width="2.5" stroke-linecap="round" stroke-linejoin="round"/>
<path d="M24.4677 12.75L21.2344 15.1167" stroke="white" stroke-width="2.5" stroke-linecap="round" stroke-linejoin="round"/>
<path d="M3.83398 23.3334V25C3.83398 33.3334 7.16732 36.6667 15.5007 36.6667H25.5007C33.834 36.6667 37.1673 33.3334 37.1673 25V15C37.1673 6.66671 33.834 3.33337 25.5007 3.33337H15.5007C7.16732 3.33337 3.83398 6.66671 3.83398 15" stroke="white" stroke-width="2.5" stroke-linecap="round" stroke-linejoin="round"/>
</svg>
